<svg xmlns="http://www.w3.org/2000/svg" viewBox="0 0 1200 390" width="1200" height="390" role="img" aria-label="tech stack">
  <style>
    .mono { font-family: "JetBrains Mono","SFMono-Regular",Consolas,"Liberation Mono",monospace; }
    .lbl { fill:#5c646d; font-size:11px; letter-spacing:2.4px; text-transform:uppercase; }
    .pil { fill:#0c0d10; stroke:#20252b; }
    .tag { fill:#b8c0c8; font-size:12.5px; }
    .cell { opacity:0; animation:pop .5s cubic-bezier(.2,.7,.3,1) both; }
    @keyframes pop { from { opacity:0; transform:translateY(6px) } to { opacity:1; transform:translateY(0) } }
  </style>
  <rect x="0" y="0" width="1200" height="390" fill="#08090b" rx="8"/>
  <text class="mono lbl" x="20" y="34">frontend</text>
  <g class="cell" style="animation-delay:0.0s">
    <rect class="pil" x="20" y="42" width="185" height="40" rx="6" stroke-width="1"/>
    <text class="mono tag" x="112" y="66" text-anchor="middle">JavaScript</text>
  </g>
  <g class="cell" style="animation-delay:0.05s">
    <rect class="pil" x="215" y="42" width="185" height="40" rx="6" stroke-width="1"/>
    <text class="mono tag" x="308" y="66" text-anchor="middle">TypeScript</text>
  </g>
  <g class="cell" style="animation-delay:0.1s">
    <rect class="pil" x="410" y="42" width="185" height="40" rx="6" stroke-width="1"/>
    <text class="mono tag" x="502" y="66" text-anchor="middle">React</text>
  </g>
  <g class="cell" style="animation-delay:0.15s">
    <rect class="pil" x="605" y="42" width="185" height="40" rx="6" stroke-width="1"/>
    <text class="mono tag" x="698" y="66" text-anchor="middle">Next.js</text>
  </g>
  <g class="cell" style="animation-delay:0.2s">
    <rect class="pil" x="800" y="42" width="185" height="40" rx="6" stroke-width="1"/>
    <text class="mono tag" x="892" y="66" text-anchor="middle">Tailwind CSS</text>
  </g>
  <g class="cell" style="animation-delay:0.25s">
    <rect class="pil" x="995" y="42" width="185" height="40" rx="6" stroke-width="1"/>
    <text class="mono tag" x="1088" y="66" text-anchor="middle">Vite</text>
  </g>
  <text class="mono lbl" x="20" y="108">backend</text>
  <g class="cell" style="animation-delay:0.3s">
    <rect class="pil" x="20" y="116" width="185" height="40" rx="6" stroke-width="1"/>
    <text class="mono tag" x="112" y="140" text-anchor="middle">Node.js</text>
  </g>
  <g class="cell" style="animation-delay:0.35s">
    <rect class="pil" x="215" y="116" width="185" height="40" rx="6" stroke-width="1"/>
    <text class="mono tag" x="308" y="140" text-anchor="middle">Express</text>
  </g>
  <g class="cell" style="animation-delay:0.4s">
    <rect class="pil" x="410" y="116" width="185" height="40" rx="6" stroke-width="1"/>
    <text class="mono tag" x="502" y="140" text-anchor="middle">PHP</text>
  </g>
  <g class="cell" style="animation-delay:0.45s">
    <rect class="pil" x="605" y="116" width="185" height="40" rx="6" stroke-width="1"/>
    <text class="mono tag" x="698" y="140" text-anchor="middle">Laravel</text>
  </g>
  <g class="cell" style="animation-delay:0.5s">
    <rect class="pil" x="800" y="116" width="185" height="40" rx="6" stroke-width="1"/>
    <text class="mono tag" x="892" y="140" text-anchor="middle">REST APIs</text>
  </g>
  <g class="cell" style="animation-delay:0.55s">
    <rect class="pil" x="995" y="116" width="185" height="40" rx="6" stroke-width="1"/>
    <text class="mono tag" x="1088" y="140" text-anchor="middle">WebSockets</text>
  </g>
  <text class="mono lbl" x="20" y="182">data</text>
  <g class="cell" style="animation-delay:0.6s">
    <rect class="pil" x="20" y="190" width="185" height="40" rx="6" stroke-width="1"/>
    <text class="mono tag" x="112" y="214" text-anchor="middle">PostgreSQL</text>
  </g>
  <g class="cell" style="animation-delay:0.65s">
    <rect class="pil" x="215" y="190" width="185" height="40" rx="6" stroke-width="1"/>
    <text class="mono tag" x="308" y="214" text-anchor="middle">MySQL</text>
  </g>
  <g class="cell" style="animation-delay:0.7s">
    <rect class="pil" x="410" y="190" width="185" height="40" rx="6" stroke-width="1"/>
    <text class="mono tag" x="502" y="214" text-anchor="middle">MongoDB</text>
  </g>
  <g class="cell" style="animation-delay:0.75s">
    <rect class="pil" x="605" y="190" width="185" height="40" rx="6" stroke-width="1"/>
    <text class="mono tag" x="698" y="214" text-anchor="middle">Redis</text>
  </g>
  <g class="cell" style="animation-delay:0.8s">
    <rect class="pil" x="800" y="190" width="185" height="40" rx="6" stroke-width="1"/>
    <text class="mono tag" x="892" y="214" text-anchor="middle">Prisma ORM</text>
  </g>
  <g class="cell" style="animation-delay:0.85s">
    <rect class="pil" x="995" y="190" width="185" height="40" rx="6" stroke-width="1"/>
    <text class="mono tag" x="1088" y="214" text-anchor="middle">SQL</text>
  </g>
  <text class="mono lbl" x="20" y="256">infra</text>
  <g class="cell" style="animation-delay:0.9s">
    <rect class="pil" x="20" y="264" width="185" height="40" rx="6" stroke-width="1"/>
    <text class="mono tag" x="112" y="288" text-anchor="middle">Docker</text>
  </g>
  <g class="cell" style="animation-delay:0.95s">
    <rect class="pil" x="215" y="264" width="185" height="40" rx="6" stroke-width="1"/>
    <text class="mono tag" x="308" y="288" text-anchor="middle">Nginx</text>
  </g>
  <g class="cell" style="animation-delay:1.0s">
    <rect class="pil" x="410" y="264" width="185" height="40" rx="6" stroke-width="1"/>
    <text class="mono tag" x="502" y="288" text-anchor="middle">Linux</text>
  </g>
  <g class="cell" style="animation-delay:1.05s">
    <rect class="pil" x="605" y="264" width="185" height="40" rx="6" stroke-width="1"/>
    <text class="mono tag" x="698" y="288" text-anchor="middle">Cloudflare</text>
  </g>
  <g class="cell" style="animation-delay:1.1s">
    <rect class="pil" x="800" y="264" width="185" height="40" rx="6" stroke-width="1"/>
    <text class="mono tag" x="892" y="288" text-anchor="middle">Git</text>
  </g>
  <g class="cell" style="animation-delay:1.15s">
    <rect class="pil" x="995" y="264" width="185" height="40" rx="6" stroke-width="1"/>
    <text class="mono tag" x="1088" y="288" text-anchor="middle">PM2</text>
  </g>
  <text class="mono lbl" x="20" y="330">cfx.re / other</text>
  <g class="cell" style="animation-delay:1.2s">
    <rect class="pil" x="20" y="338" width="185" height="40" rx="6" stroke-width="1"/>
    <text class="mono tag" x="112" y="362" text-anchor="middle">Lua</text>
  </g>
  <g class="cell" style="animation-delay:1.25s">
    <rect class="pil" x="215" y="338" width="185" height="40" rx="6" stroke-width="1"/>
    <text class="mono tag" x="308" y="362" text-anchor="middle">NUI</text>
  </g>
  <g class="cell" style="animation-delay:1.3s">
    <rect class="pil" x="410" y="338" width="185" height="40" rx="6" stroke-width="1"/>
    <text class="mono tag" x="502" y="362" text-anchor="middle">ESX / QB</text>
  </g>
  <g class="cell" style="animation-delay:1.35s">
    <rect class="pil" x="605" y="338" width="185" height="40" rx="6" stroke-width="1"/>
    <text class="mono tag" x="698" y="362" text-anchor="middle">FiveM</text>
  </g>
  <g class="cell" style="animation-delay:1.4s">
    <rect class="pil" x="800" y="338" width="185" height="40" rx="6" stroke-width="1"/>
    <text class="mono tag" x="892" y="362" text-anchor="middle">Ableton</text>
  </g>
  <g class="cell" style="animation-delay:1.45s">
    <rect class="pil" x="995" y="338" width="185" height="40" rx="6" stroke-width="1"/>
    <text class="mono tag" x="1088" y="362" text-anchor="middle">Figma</text>
  </g>
</svg>
